<?xml version="1.0" encoding="utf-8"?>
<!-- Generator: Adobe Illustrator 22.1.0, SVG Export Plug-In . SVG Version: 6.00 Build 0)  -->
<svg version="1.1" id="Layer_1" xmlns="http://www.w3.org/2000/svg" xmlns:xlink="http://www.w3.org/1999/xlink" x="0px" y="0px"
	 viewBox="0 0 72 72" style="enable-background:new 0 0 72 72;" xml:space="preserve">
<style type="text/css">
	.st0{fill:#F79548;}
	.st1{fill:#585B67;}
	.st2{fill:#A9B1B8;}
	.st3{fill:#828F96;}
	.st4{fill:#4C9CD6;}
	.st5{fill:#F37321;}
	.st6{fill:#BEC3C7;}
	.st7{fill:#D7DADD;}
	.st8{fill:#310E31;}
	.st9{fill:#FFFFFF;}
	.st10{fill:#939EA5;}
	.st11{fill:#005F8B;}
	.st12{fill:#0080AE;}
	.st13{fill:#5F7987;}
	.st14{fill:#3C5568;}
	.st15{fill:#00A2CE;}
	.st16{fill:#64C5BA;}
	.st17{fill:#A0D8D1;}
	.st18{fill:#80C56D;}
	.st19{fill:#5BAA5D;}
	.st20{fill:#E96324;}
	.st21{fill:#FCBB76;}
	.st22{fill:#ACDBF6;}
	.st23{fill:#70B7E5;}
	.st24{fill:#3689C9;}
	.st25{fill:#0F76B0;}
	.st26{fill:#91C9ED;}
	.st27{fill:#D5E3EF;}
	.st28{fill:#676A75;}
	.st29{fill:#444751;}
	.st30{fill:#53A5C6;}
	.st31{fill:#787B82;}
	.st32{fill:#F6B545;}
	.st33{fill:#FFE278;}
	.st34{fill:#FFCB5B;}
	.st35{fill:#F19920;}
	.st36{fill:#6E8089;}
</style>
<g>
	<path class="st1" d="M67,71H41c-1.1,0-2-0.9-2-2V47c0-1.1,0.9-2,2-2h26c1.1,0,2,0.9,2,2v22C69,70.1,68.1,71,67,71z"/>
</g>
<g>
	<path class="st2" d="M43,46v20c0,0.6,0.4,1,1,1h20c0.6,0,1-0.4,1-1V46"/>
</g>
<g>
	<path class="st3" d="M45.5,51H44h-0.5H43v16h1V53c0-0.6,0.4-1,1-1h0.5c0.3,0,0.5-0.2,0.5-0.5C46,51.2,45.8,51,45.5,51z"/>
</g>
<g>
	<path class="st4" d="M43,32l-0.6,1c-0.8,1.2-0.6,2.8,0.4,3.8L43,37L27.6,69.6c-0.4,0.8-1.2,1.4-2.1,1.4h0c-1.4,0-2.4-1.1-2.4-2.5
		l0.7-13.7c0.1-1.8-0.6-3.6-1.9-4.8l0,0c-1.3-1.3-3-1.9-4.8-1.9L3.5,48.9c-1.4,0.1-2.5-1-2.5-2.4v0c0-0.9,0.5-1.8,1.4-2.1L35,29
		l0.3,0.3c1,1,2.6,1.2,3.8,0.4l1-0.6L43,32z"/>
</g>
<g>
	<path class="st8" d="M71,72H16c-0.6,0-1-0.4-1-1s0.4-1,1-1h55c0.6,0,1,0.4,1,1S71.6,72,71,72z"/>
</g>
<g>
	<path class="st22" d="M26.8,55.3c0.1-2.5-0.6-5.1-2.3-7c-1.8-2-4.3-3.2-7-3.2c-0.2,0-0.3,0-0.5,0l-2.1,0.1
		c-1.8,0.1-2.4-2.4-0.8-3.1l17.8-8.4c1.8-0.8,3.9-0.5,5.3,0.9c0,0,0,0,0.1,0.1c1.4,1.4,1.8,3.5,1,5.3l-8.4,17.8
		c-0.8,1.6-3.2,1-3.1-0.8L26.8,55.3z"/>
</g>
<g>
	<path class="st8" d="M25.5,72c-0.9,0-1.8-0.4-2.4-1c-0.6-0.7-1-1.6-0.9-2.5l0.7-13.7c0.1-1.5-0.5-3-1.6-4.1s-2.5-1.6-4.1-1.6
		L3.5,49.9c-0.9,0-1.8-0.3-2.5-0.9S0,47.4,0,46.5c0-1.3,0.8-2.5,1.9-3l32.6-15.4c0.4-0.2,0.8-0.1,1.1,0.2l0.3,0.3
		c0.7,0.7,1.7,0.8,2.5,0.2l1-0.6c0.4-0.3,0.9-0.2,1.3,0.1l3,3c0.3,0.3,0.4,0.9,0.1,1.3l-0.6,1c-0.5,0.8-0.4,1.9,0.2,2.5l0.3,0.3
		c0.3,0.3,0.4,0.8,0.2,1.1L28.5,70.1C28,71.2,26.8,72,25.5,72z M17.5,47.1c1.9,0,3.8,0.8,5.2,2.2c1.5,1.5,2.3,3.5,2.1,5.6l-0.7,13.7
		c0,0.4,0.1,0.7,0.4,1c0.6,0.7,1.8,0.5,2.2-0.4l15.1-32c-1.1-1.3-1.3-3.3-0.3-4.8l0.2-0.3l-1.8-1.8l-0.3,0.2c-1.5,1-3.5,0.9-4.8-0.3
		l-32,15.1C2.3,45.5,2,46,2,46.5c0,0.4,0.2,0.7,0.4,1c0.3,0.3,0.6,0.4,1,0.4l13.7-0.7C17.3,47.1,17.4,47.1,17.5,47.1z"/>
</g>
<g>
	<g>
		<g>
			<path class="st23" d="M11,42.5c-0.2,0-0.4-0.1-0.5-0.3c-0.1-0.2,0-0.5,0.2-0.7l21.1-10c0.2-0.1,0.5,0,0.7,0.2
				c0.1,0.2,0,0.5-0.2,0.7l-21.1,10C11.1,42.4,11.1,42.5,11,42.5z"/>
		</g>
	</g>
</g>
<g>
	<g>
		<g>
			<path class="st23" d="M3,46.2c-0.2,0-0.4-0.1-0.5-0.3c-0.1-0.2,0-0.5,0.2-0.7l5-2.4c0.2-0.1,0.5,0,0.7,0.2c0.1,0.2,0,0.5-0.2,0.7
				l-5,2.4C3.1,46.2,3.1,46.2,3,46.2z"/>
		</g>
	</g>
</g>
<g>
	<g>
		<g>
			<path class="st24" d="M23.1,49.4c-0.1,0-0.3,0-0.4-0.1c-1.5-1.5-3.5-2.2-5.6-2.1L7,47.7c-0.3,0-0.5-0.2-0.5-0.5
				c0-0.3,0.2-0.5,0.5-0.5l10.1-0.5c2.4-0.1,4.7,0.8,6.3,2.4c0.2,0.2,0.2,0.5,0,0.7C23.3,49.4,23.2,49.4,23.1,49.4z"/>
		</g>
	</g>
</g>
<g>
	<g>
		<g>
			<path class="st25" d="M25.5,70c-0.3,0-0.5-0.2-0.5-0.5c0-0.1,0.1-0.3,0.2-0.4c0.4-0.4,0.9-0.8,1.1-1.3l14.4-30.5
				c-1-1.6-1-3.8,0-5.4c0.1-0.2,0.5-0.3,0.7-0.2c0.2,0.1,0.3,0.5,0.2,0.7c-0.9,1.4-0.8,3.2,0.1,4.5c0,0,0,0,0,0
				c0.1,0.1,0.1,0.3,0,0.5L26.7,69.2C26.5,69.7,26,70,25.5,70z"/>
		</g>
	</g>
</g>
<g>
	<g>
		<path class="st26" d="M18,39.2c-0.2,0-0.4-0.1-0.5-0.3c-0.1-0.2,0-0.5,0.2-0.7l7-3.3c0.2-0.1,0.5,0,0.7,0.2c0.1,0.2,0,0.5-0.2,0.7
			l-7,3.3C18.1,39.1,18.1,39.2,18,39.2z"/>
	</g>
</g>
<g>
	<polygon class="st27" points="38,37 35,34 60,9 61,6 70,1 71,2 66,11 63,12 	"/>
</g>
<g>
	<circle class="st8" cx="30" cy="56" r="1"/>
</g>
<g>
	<circle class="st8" cx="32" cy="53" r="1"/>
</g>
<g>
	<circle class="st8" cx="28" cy="53" r="1"/>
</g>
<g>
	<path class="st28" d="M31.9,44.7l-4.6-4.6c-0.4-0.4-0.4-1,0-1.4l0.6-0.6c0.4-0.4,1-0.4,1.4,0l4.6,4.6c0.4,0.4,0.4,1,0,1.4l-0.6,0.6
		C32.9,45.1,32.3,45.1,31.9,44.7z"/>
</g>
<g>
	<g>
		
			<rect x="29.6" y="41.1" transform="matrix(0.7071 -0.7071 0.7071 0.7071 -20.4117 33.9644)" class="st29" width="2.4" height="1"/>
	</g>
</g>
<g>
	<g>
		
			<rect x="31.4" y="38.4" transform="matrix(0.7071 -0.7071 0.7071 0.7071 -17.6439 35.1108)" class="st30" width="4.2" height="1"/>
	</g>
</g>
<g>
	<g>
		
			<rect x="28.1" y="39.6" transform="matrix(0.7071 -0.7071 0.7071 0.7071 -19.7903 32.4644)" class="st29" width="2.4" height="1"/>
	</g>
</g>
<g>
	<g>
		
			<rect x="30.1" y="36.9" transform="matrix(0.7071 -0.7071 0.7071 0.7071 -17.0832 33.5857)" class="st30" width="3.8" height="1"/>
	</g>
</g>
<g>
	<g>
		<rect x="31.1" y="42.6" transform="matrix(0.7071 -0.7071 0.7071 0.7071 -21.033 35.4644)" class="st29" width="2.4" height="1"/>
	</g>
</g>
<g>
	<g>
		
			<rect x="33.1" y="39.9" transform="matrix(0.7071 -0.7071 0.7071 0.7071 -18.3258 36.5857)" class="st30" width="3.8" height="1"/>
	</g>
</g>
<g>
	<g>
		
			<rect x="25.9" y="43.9" transform="matrix(0.7071 -0.7071 0.7071 0.7071 -23.1439 32.8326)" class="st30" width="4.2" height="1"/>
	</g>
</g>
<g>
	<rect x="23.9" y="42.6" transform="matrix(0.7071 -0.7071 0.7071 0.7071 -22.8156 31.2113)" class="st30" width="4.8" height="1"/>
</g>
<g>
	<g>
		
			<rect x="26.9" y="45.6" transform="matrix(0.7071 -0.7071 0.7071 0.7071 -24.0582 34.2113)" class="st30" width="4.8" height="1"/>
	</g>
</g>
<g>
	<path class="st28" d="M37.3,39.3l-4.6-4.6c-0.4-0.4-0.4-1,0-1.4l0.6-0.6c0.4-0.4,1-0.4,1.4,0l4.6,4.6c0.4,0.4,0.4,1,0,1.4l-0.6,0.6
		C38.3,39.7,37.7,39.7,37.3,39.3z"/>
</g>
<g>
	<g>
		<rect x="35" y="35.7" transform="matrix(0.7071 -0.7071 0.7071 0.7071 -14.9974 36.207)" class="st29" width="2.4" height="1"/>
	</g>
</g>
<g>
	<g>
		<rect x="33.5" y="34.2" transform="matrix(0.7071 -0.7071 0.7071 0.7071 -14.3761 34.707)" class="st29" width="2.4" height="1"/>
	</g>
</g>
<g>
	<g>
		<rect x="36.5" y="37.2" transform="matrix(0.7071 -0.7071 0.7071 0.7071 -15.6188 37.707)" class="st29" width="2.4" height="1"/>
	</g>
</g>
<g>
	<g>
		<path class="st31" d="M40.5,66.5c-0.3,0-0.5-0.2-0.5-0.5V47c0-0.6,0.4-1,1-1h2c0.3,0,0.5,0.2,0.5,0.5S43.3,47,43,47h-2v19
			C41,66.3,40.8,66.5,40.5,66.5z"/>
	</g>
</g>
<g>
	<g>
		<path class="st29" d="M67,70H41c-0.3,0-0.5-0.2-0.5-0.5S40.7,69,41,69h26v-6c0-0.3,0.2-0.5,0.5-0.5S68,62.7,68,63v6
			C68,69.6,67.6,70,67,70z"/>
	</g>
</g>
<g>
	<rect x="43" y="46" class="st32" width="22" height="5"/>
</g>
<g>
	<circle class="st8" cx="62.5" cy="48.5" r="0.5"/>
</g>
<g>
	<circle class="st33" cx="48.5" cy="48.5" r="0.5"/>
</g>
<g>
	<circle class="st33" cx="50.5" cy="48.5" r="0.5"/>
</g>
<g>
	<circle class="st33" cx="52.5" cy="48.5" r="0.5"/>
</g>
<g>
	<circle class="st33" cx="54.5" cy="48.5" r="0.5"/>
</g>
<g>
	<circle class="st33" cx="56.5" cy="48.5" r="0.5"/>
</g>
<g>
	<circle class="st33" cx="58.5" cy="48.5" r="0.5"/>
</g>
<g>
	<rect x="43" y="53" class="st10" width="22" height="1"/>
</g>
<g>
	<rect x="43" y="55" class="st10" width="22" height="1"/>
</g>
<g>
	<rect x="43" y="57" class="st10" width="22" height="1"/>
</g>
<g>
	<rect x="43" y="59" class="st10" width="22" height="1"/>
</g>
<g>
	<rect x="43" y="51" class="st10" width="22" height="1"/>
</g>
<g>
	<rect x="43" y="61" class="st10" width="22" height="1"/>
</g>
<g>
	<rect x="43" y="63" class="st10" width="22" height="1"/>
</g>
<g>
	<rect x="43" y="65" class="st10" width="22" height="1"/>
</g>
<g>
	<rect x="43" y="46" class="st34" width="22" height="1"/>
</g>
<g>
	<rect x="43" y="50" class="st35" width="22" height="1"/>
</g>
<g>
	<path class="st29" d="M67.5,60L67.5,60c-0.3,0-0.5-0.2-0.5-0.5v-4c0-0.3,0.2-0.5,0.5-0.5l0,0c0.3,0,0.5,0.2,0.5,0.5v4
		C68,59.8,67.8,60,67.5,60z"/>
</g>
<g>
	<path class="st31" d="M66.5,47h-1c-0.3,0-0.5-0.2-0.5-0.5l0,0c0-0.3,0.2-0.5,0.5-0.5h1c0.3,0,0.5,0.2,0.5,0.5l0,0
		C67,46.8,66.8,47,66.5,47z"/>
</g>
<g>
	<rect x="43" y="61" class="st36" width="1" height="1"/>
</g>
<g>
	<rect x="43" y="59" class="st36" width="1" height="1"/>
</g>
<g>
	<rect x="43" y="57" class="st36" width="1" height="1"/>
</g>
<g>
	<rect x="43" y="55" class="st36" width="1" height="1"/>
</g>
<g>
	<rect x="43" y="53" class="st36" width="1" height="1"/>
</g>
<g>
	<path class="st36" d="M45.5,52h-2c-0.3,0-0.5-0.2-0.5-0.5l0,0c0-0.3,0.2-0.5,0.5-0.5h2c0.3,0,0.5,0.2,0.5,0.5l0,0
		C46,51.8,45.8,52,45.5,52z"/>
</g>
<g>
	<rect x="43" y="65" class="st36" width="1" height="1"/>
</g>
<g>
	<rect x="43" y="63" class="st36" width="1" height="1"/>
</g>
<path class="st8" d="M67,44H41c-1.7,0-3,1.3-3,3v22c0,1.7,1.3,3,3,3h26c1.7,0,3-1.3,3-3V47C70,45.3,68.7,44,67,44z M64.5,46v20
	c0,0.3-0.2,0.5-0.5,0.5H44c-0.3,0-0.5-0.2-0.5-0.5V46H64.5z M68,69c0,0.6-0.4,1-1,1H41c-0.6,0-1-0.4-1-1V47c0-0.6,0.4-1,1-1h1.5v20
	c0,0.8,0.7,1.5,1.5,1.5h20c0.8,0,1.5-0.7,1.5-1.5V46H67c0.6,0,1,0.4,1,1V69z"/>
<g>
	<path class="st36" d="M49.5,52h-2c-0.3,0-0.5-0.2-0.5-0.5l0,0c0-0.3,0.2-0.5,0.5-0.5h2c0.3,0,0.5,0.2,0.5,0.5l0,0
		C50,51.8,49.8,52,49.5,52z"/>
</g>
<g>
	<path class="st8" d="M65,51.5H43c-0.3,0-0.5-0.2-0.5-0.5s0.2-0.5,0.5-0.5h22c0.3,0,0.5,0.2,0.5,0.5S65.3,51.5,65,51.5z"/>
</g>
<g>
	<g>
		<path class="st8" d="M33.5,66c-1.1,0-2-0.9-2-2V52.5c0-0.3,0.2-0.5,0.5-0.5s0.5,0.2,0.5,0.5V64c0,0.6,0.4,1,1,1s1-0.4,1-1v-4
			c0-1.1,0.9-2,2-2h3c0.6,0,1-0.4,1-1v-7c0-1.1,0.9-2,2-2h3c0.3,0,0.5,0.2,0.5,0.5S45.8,49,45.5,49h-3c-0.6,0-1,0.4-1,1v7
			c0,1.1-0.9,2-2,2h-3c-0.6,0-1,0.4-1,1v4C35.5,65.1,34.6,66,33.5,66z"/>
	</g>
</g>
<path class="st8" d="M71.4,6.1l-1.2-0.6l1.7-3c0.2-0.4,0.1-0.9-0.2-1.2l-1-1C70.5,0.1,70.3,0,70,0c-0.2,0-0.3,0-0.5,0.1l-3,1.7
	l-0.6-1.2C65.7,0.2,65.4,0,65,0c-0.2,0-0.3,0-0.5,0.1c-0.5,0.2-0.7,0.8-0.4,1.3l0.7,1.3L62.6,4l-0.7-1.4c-0.2-0.5-0.8-0.7-1.3-0.4
	c-0.5,0.2-0.7,0.8-0.4,1.3l0.7,1.5l-0.3,0.2c-0.2,0.1-0.4,0.3-0.5,0.6l-0.9,2.8l-24,24l-0.1-0.1c-0.6-0.6-1.5-0.6-2.1,0l-0.6,0.6
	c-0.6,0.6-0.6,1.5,0,2.1l0.4,0.4l-2.7,2.7l-0.4-0.4c-0.6-0.6-1.6-0.6-2.1,0l-0.6,0.6c-0.6,0.6-0.6,1.5,0,2.1l0.4,0.4l-2.9,2.9
	l-0.1-0.1c-0.2-0.2-0.5-0.2-0.7,0s-0.2,0.5,0,0.7l4,4c0.1,0.1,0.2,0.1,0.4,0.1s0.3,0,0.4-0.1c0.2-0.2,0.2-0.5,0-0.7l-0.1-0.1
	l2.9-2.9l0.4,0.4c0.3,0.3,0.7,0.4,1.1,0.4c0.4,0,0.8-0.2,1.1-0.4l0.6-0.6c0.6-0.6,0.6-1.5,0-2.1l-0.4-0.4l2.7-2.7l0.4,0.4
	c0.3,0.3,0.7,0.4,1.1,0.4s0.8-0.1,1.1-0.4l0.6-0.6c0.6-0.6,0.6-1.5,0-2.1l-0.1-0.1l24-24l2.8-0.9c0.2-0.1,0.4-0.2,0.6-0.5l0.2-0.3
	l1.5,0.7C68.7,12,68.8,12,69,12c0.4,0,0.7-0.2,0.9-0.6c0.2-0.5,0-1.1-0.4-1.3L68,9.4l1.2-2.2l1.3,0.7C70.7,8,70.8,8,71,8
	c0.4,0,0.7-0.2,0.9-0.6C72.1,7,71.9,6.4,71.4,6.1z M65.5,4.6v0.1c0,0.7-0.3,1.3-0.7,1.8L64,7.3c-0.1-0.3-0.2-0.5-0.3-0.8l-0.4-0.6
	L65.5,4.6z M60.7,9.7c0.1-0.1,0.2-0.2,0.2-0.4l0.9-2.6l0.5-0.3l0.5,0.7c0.3,0.5,0.3,1.1-0.2,1.5L37,34.3l-0.4-0.4L60.7,9.7z
	 M35.5,34.2l0.8,0.8L35,36.3l-0.8-0.8L35.5,34.2z M33.1,33.6l0.6-0.6c0.1-0.1,0.2-0.1,0.4-0.1s0.3,0,0.4,0.1l0.4,0.4l-1.3,1.3
	l-0.4-0.4C32.9,34.2,32.9,33.8,33.1,33.6z M33.5,36.2l0.8,0.8l-2.7,2.7l-0.8-0.8L33.5,36.2z M29.6,41.7l-0.8-0.8l1.3-1.3l0.8,0.8
	L29.6,41.7z M31.6,41.1l0.8,0.8l-1.3,1.3l-0.8-0.8L31.6,41.1z M27.6,39.8c-0.2-0.2-0.2-0.5,0-0.7l0.6-0.6c0.1-0.1,0.2-0.1,0.4-0.1
	c0.1,0,0.3,0.1,0.4,0.1l0.4,0.4l-1.3,1.3L27.6,39.8z M25.2,44.5l2.9-2.9l0.8,0.8L26,45.3L25.2,44.5z M27.5,46.8L26.7,46l2.9-2.9
	l0.8,0.8L27.5,46.8z M33.5,43.1c0.2,0.2,0.2,0.5,0,0.7l-0.6,0.6c-0.2,0.2-0.5,0.2-0.7,0c0,0,0,0,0,0l-0.4-0.4l1.3-1.3L33.5,43.1z
	 M33.1,41.2l-0.8-0.8l2.7-2.7l0.8,0.8L33.1,41.2z M36.5,37.8L35.7,37l1.3-1.3l0.8,0.8L36.5,37.8z M38.9,38.4l-0.6,0.6
	c-0.2,0.2-0.5,0.2-0.7,0l-0.4-0.4l1.3-1.3l0.4,0.4C39.1,37.8,39.1,38.2,38.9,38.4z M65.3,10.2l-2.6,0.9c-0.1,0-0.3,0.1-0.4,0.2
	L38.1,35.4L37.7,35L63.4,9.4c0.4-0.4,1.1-0.5,1.5-0.2l0.7,0.5L65.3,10.2z M66.1,8.8l-0.6-0.4c-0.2-0.2-0.5-0.3-0.8-0.3l0.8-0.8
	c0.5-0.5,1.1-0.7,1.8-0.7h0.1L66.1,8.8z M67.9,5.5h-0.7c-0.3,0-0.6,0-0.9,0.1c0.1-0.3,0.1-0.6,0.1-0.9V4.1l3.2-1.8L67.9,5.5z"/>
</svg>
